<svg width="48" height="34" viewBox="0 0 48 34" fill="none" xmlns="http://www.w3.org/2000/svg">
<g clip-path="url(#clip0_123_3437)">
<path d="M39.9839 25.5932C41.9679 23.0605 43.1196 20.0472 43.1196 16.8077C43.1196 7.85261 34.2996 0.587891 23.4156 0.587891C12.5317 0.587891 3.71161 7.84696 3.71161 16.8077C3.71161 25.7628 12.5317 33.0276 23.4156 33.0276C27.3667 33.0276 31.0498 32.0665 34.1342 30.4157C34.1342 30.4157 36.7968 33.4176 44.2884 33.0276C44.2884 33.0276 37.2244 30.0538 39.9839 25.5932Z" fill="#FF7300"/>
<path d="M16.1292 16.9493C15.5192 16.4122 14.664 16.0108 13.5636 15.7394C12.4632 15.4681 11.762 15.2363 11.4598 15.0384C11.1576 14.8405 11.0037 14.5748 11.0037 14.2413C11.0037 13.9077 11.1291 13.6363 11.3743 13.4328C11.6251 13.2293 11.9615 13.1275 12.3948 13.1275C13.4667 13.1275 14.5043 13.5063 15.5135 14.2639L15.599 14.1395L14.5614 11.194C13.8658 10.9792 13.1702 10.8774 12.4746 10.8774C11.2888 10.8774 10.3024 11.1714 9.51562 11.765C8.72313 12.3587 8.32973 13.201 8.32973 14.2921C8.32973 15.3833 8.64331 16.1861 9.26476 16.6949C9.89191 17.2037 10.8783 17.6164 12.2238 17.9386C13.0733 18.1478 13.6434 18.3513 13.9342 18.5549C14.2193 18.7584 14.3675 19.0298 14.3675 19.3746C14.3675 19.7195 14.2307 19.9965 13.9627 20.1944C13.689 20.3979 13.3184 20.4997 12.8452 20.4997C11.7848 20.4997 10.6274 19.9569 9.37879 18.8715L7.83371 20.7484C9.30467 22.0996 10.9581 22.7724 12.7939 22.7724C14.0653 22.7724 15.0916 22.4501 15.8727 21.8113C16.6538 21.1724 17.0415 20.3357 17.0415 19.3011C17.0415 18.2722 16.7336 17.4864 16.1292 16.9493Z" fill="white"/>
<path d="M30.2687 11.1431H29.2139L26.9048 17.7576L24.8638 11.1431H22.1613L20.1031 17.7576L17.8168 11.1431H15.0117L19.0597 22.6422H20.9811L23.5068 14.6482L26.0439 22.6422H27.9653L30.2687 16.1012V11.1431Z" fill="white"/>
<path d="M30.702 22.6422V11.1431H33.2904V20.3526H38.2335V22.6366H30.702V22.6422Z" fill="white"/>
</g>
<defs>
<clipPath id="clip0_123_3437">
<rect width="48" height="33.6552" fill="white"/>
</clipPath>
</defs>
</svg>
