<svg width="315" height="183" viewBox="0 0 315 183" fill="none" xmlns="http://www.w3.org/2000/svg">
<g filter="url(#filter0_dd_123_4448)">
<path d="M16 17.4251C16 14.4289 18.4366 12 21.4423 12H293.558C296.563 12 299 14.4289 299 17.4251V157.575C299 160.571 296.563 163 293.558 163H21.4423C18.4366 163 16 160.571 16 157.575V17.4251Z" fill="white"/>
</g>
<path d="M169.292 32.8326H170.349V39.6882H174.304V40.6153H169.292V32.8326Z" fill="#334155"/>
<path d="M177.593 34.814C177.997 34.814 178.389 34.9094 178.768 35.1001C179.147 35.2873 179.436 35.531 179.634 35.8312C179.826 36.1173 179.953 36.4511 180.017 36.8326C180.074 37.0939 180.102 37.5107 180.102 38.0829H175.93C175.948 38.6586 176.084 39.1213 176.339 39.471C176.594 39.8171 176.989 39.9902 177.524 39.9902C178.024 39.9902 178.422 39.8259 178.72 39.4975C178.89 39.3067 179.011 39.086 179.082 38.8352H180.022C179.997 39.0436 179.914 39.2767 179.772 39.5345C179.634 39.7889 179.478 39.9972 179.305 40.1597C179.014 40.4423 178.655 40.633 178.226 40.7319C177.996 40.7884 177.735 40.8167 177.445 40.8167C176.736 40.8167 176.135 40.5606 175.643 40.0485C175.15 39.5328 174.904 38.8123 174.904 37.8869C174.904 36.9756 175.152 36.2357 175.648 35.667C176.144 35.0984 176.793 34.814 177.593 34.814ZM179.119 37.3253C179.08 36.912 178.989 36.5818 178.848 36.3346C178.585 35.8754 178.148 35.6458 177.535 35.6458C177.096 35.6458 176.727 35.8048 176.429 36.1226C176.132 36.437 175.974 36.8379 175.956 37.3253H179.119Z" fill="#334155"/>
<path d="M181.851 38.8352C181.879 39.1531 181.959 39.3968 182.09 39.5663C182.331 39.8736 182.749 40.0273 183.344 40.0273C183.698 40.0273 184.01 39.9513 184.279 39.7994C184.549 39.644 184.683 39.4056 184.683 39.0842C184.683 38.8405 184.575 38.6551 184.359 38.5279C184.221 38.4502 183.948 38.3602 183.541 38.2577L182.781 38.067C182.295 37.9469 181.937 37.8127 181.707 37.6644C181.296 37.4065 181.091 37.0498 181.091 36.5942C181.091 36.0573 181.284 35.6229 181.67 35.2909C182.06 34.9588 182.582 34.7928 183.238 34.7928C184.095 34.7928 184.713 35.0436 185.093 35.5452C185.33 35.863 185.445 36.2056 185.438 36.573H184.534C184.517 36.3575 184.441 36.1615 184.306 35.9849C184.086 35.7341 183.705 35.6087 183.163 35.6087C182.802 35.6087 182.527 35.6776 182.339 35.8154C182.155 35.9531 182.063 36.135 182.063 36.361C182.063 36.6083 182.185 36.8061 182.43 36.9544C182.572 37.0427 182.781 37.1204 183.057 37.1875L183.689 37.3412C184.377 37.5072 184.837 37.6679 185.071 37.8233C185.443 38.067 185.629 38.4502 185.629 38.973C185.629 39.478 185.436 39.9142 185.05 40.2816C184.667 40.6489 184.083 40.8326 183.296 40.8326C182.449 40.8326 181.849 40.6418 181.494 40.2604C181.144 39.8754 180.956 39.4003 180.931 38.8352H181.851Z" fill="#334155"/>
<path d="M187.293 38.8352C187.321 39.1531 187.401 39.3968 187.532 39.5663C187.773 39.8736 188.191 40.0273 188.786 40.0273C189.141 40.0273 189.452 39.9513 189.722 39.7994C189.991 39.644 190.126 39.4056 190.126 39.0842C190.126 38.8405 190.018 38.6551 189.801 38.5279C189.663 38.4502 189.39 38.3602 188.983 38.2577L188.223 38.067C187.737 37.9469 187.38 37.8127 187.149 37.6644C186.738 37.4065 186.533 37.0498 186.533 36.5942C186.533 36.0573 186.726 35.6229 187.112 35.2909C187.502 34.9588 188.024 34.7928 188.68 34.7928C189.537 34.7928 190.156 35.0436 190.535 35.5452C190.772 35.863 190.887 36.2056 190.88 36.573H189.977C189.959 36.3575 189.883 36.1615 189.748 35.9849C189.529 35.7341 189.148 35.6087 188.606 35.6087C188.244 35.6087 187.97 35.6776 187.782 35.8154C187.598 35.9531 187.505 36.135 187.505 36.361C187.505 36.6083 187.628 36.8061 187.872 36.9544C188.014 37.0427 188.223 37.1204 188.499 37.1875L189.132 37.3412C189.819 37.5072 190.28 37.6679 190.514 37.8233C190.886 38.067 191.072 38.4502 191.072 38.973C191.072 39.478 190.879 39.9142 190.492 40.2816C190.11 40.6489 189.525 40.8326 188.738 40.8326C187.892 40.8326 187.291 40.6418 186.937 40.2604C186.586 39.8754 186.398 39.4003 186.373 38.8352H187.293Z" fill="#334155"/>
<path d="M194.425 40.0008C195.059 40.0008 195.493 39.7624 195.727 39.2855C195.965 38.8052 196.083 38.2719 196.083 37.6855C196.083 37.1557 195.998 36.7248 195.828 36.3928C195.559 35.8701 195.095 35.6087 194.436 35.6087C193.851 35.6087 193.426 35.8312 193.16 36.2763C192.895 36.7213 192.762 37.2582 192.762 37.8869C192.762 38.4908 192.895 38.9942 193.16 39.3968C193.426 39.7994 193.848 40.0008 194.425 40.0008ZM194.462 34.7769C195.196 34.7769 195.816 35.0207 196.323 35.5081C196.829 35.9955 197.083 36.7125 197.083 37.6591C197.083 38.5738 196.859 39.3297 196.413 39.9266C195.966 40.5235 195.274 40.822 194.335 40.822C193.552 40.822 192.93 40.5588 192.469 40.0326C192.009 39.5028 191.778 38.7928 191.778 37.9028C191.778 36.9491 192.021 36.1897 192.507 35.6246C192.992 35.0595 193.644 34.7769 194.462 34.7769Z" fill="#334155"/>
<path d="M198.225 34.9412H199.134V35.7465C199.403 35.4145 199.689 35.1761 199.99 35.0313C200.291 34.8864 200.626 34.814 200.994 34.814C201.802 34.814 202.348 35.0948 202.631 35.6564C202.787 35.9637 202.865 36.4034 202.865 36.9756V40.6153H201.892V37.0392C201.892 36.6931 201.841 36.414 201.738 36.2021C201.568 35.8489 201.26 35.6723 200.814 35.6723C200.587 35.6723 200.401 35.6953 200.256 35.7412C199.993 35.8189 199.763 35.9743 199.565 36.2074C199.405 36.3946 199.301 36.5889 199.251 36.7902C199.205 36.988 199.182 37.2723 199.182 37.6432V40.6153H198.225V34.9412Z" fill="#334155"/>
<path d="M204.853 38.8352C204.881 39.1531 204.961 39.3968 205.092 39.5663C205.333 39.8736 205.751 40.0273 206.346 40.0273C206.701 40.0273 207.012 39.9513 207.282 39.7994C207.551 39.644 207.686 39.4056 207.686 39.0842C207.686 38.8405 207.577 38.6551 207.361 38.5279C207.223 38.4502 206.95 38.3602 206.543 38.2577L205.783 38.067C205.297 37.9469 204.94 37.8127 204.709 37.6644C204.298 37.4065 204.093 37.0498 204.093 36.5942C204.093 36.0573 204.286 35.6229 204.672 35.2909C205.062 34.9588 205.584 34.7928 206.24 34.7928C207.097 34.7928 207.716 35.0436 208.095 35.5452C208.332 35.863 208.447 36.2056 208.44 36.573H207.537C207.519 36.3575 207.443 36.1615 207.308 35.9849C207.089 35.7341 206.708 35.6087 206.166 35.6087C205.804 35.6087 205.53 35.6776 205.342 35.8154C205.157 35.9531 205.065 36.135 205.065 36.361C205.065 36.6083 205.188 36.8061 205.432 36.9544C205.574 37.0427 205.783 37.1204 206.059 37.1875L206.692 37.3412C207.379 37.5072 207.84 37.6679 208.074 37.8233C208.446 38.067 208.632 38.4502 208.632 38.973C208.632 39.478 208.438 39.9142 208.052 40.2816C207.67 40.6489 207.085 40.8326 206.298 40.8326C205.452 40.8326 204.851 40.6418 204.497 40.2604C204.146 39.8754 203.958 39.4003 203.933 38.8352H204.853Z" fill="#334155"/>
<path d="M214.951 34.7769C215.592 34.7769 216.113 34.9324 216.513 35.2432C216.917 35.554 217.16 36.0891 217.241 36.8485H216.311C216.255 36.4988 216.125 36.2092 215.923 35.9796C215.721 35.7465 215.397 35.6299 214.951 35.6299C214.341 35.6299 213.906 35.9266 213.643 36.52C213.473 36.905 213.388 37.38 213.388 37.9451C213.388 38.5138 213.509 38.9924 213.75 39.3809C213.991 39.7694 214.37 39.9637 214.887 39.9637C215.284 39.9637 215.597 39.8436 215.828 39.6034C216.062 39.3597 216.223 39.0277 216.311 38.6074H217.241C217.135 39.3597 216.869 39.9107 216.444 40.2604C216.019 40.6065 215.475 40.7796 214.813 40.7796C214.069 40.7796 213.475 40.5094 213.032 39.969C212.589 39.4251 212.368 38.7469 212.368 37.9346C212.368 36.9385 212.611 36.1633 213.096 35.6087C213.581 35.0542 214.2 34.7769 214.951 34.7769Z" fill="#334155"/>
<path d="M220.457 40.0008C221.091 40.0008 221.525 39.7624 221.759 39.2855C221.996 38.8052 222.115 38.2719 222.115 37.6855C222.115 37.1557 222.03 36.7248 221.86 36.3928C221.591 35.8701 221.127 35.6087 220.468 35.6087C219.883 35.6087 219.458 35.8312 219.192 36.2763C218.926 36.7213 218.793 37.2582 218.793 37.8869C218.793 38.4908 218.926 38.9942 219.192 39.3968C219.458 39.7994 219.879 40.0008 220.457 40.0008ZM220.494 34.7769C221.228 34.7769 221.848 35.0207 222.354 35.5081C222.861 35.9955 223.114 36.7125 223.114 37.6591C223.114 38.5738 222.891 39.3297 222.445 39.9266C221.998 40.5235 221.305 40.822 220.367 40.822C219.583 40.822 218.962 40.5588 218.501 40.0326C218.04 39.5028 217.81 38.7928 217.81 37.9028C217.81 36.9491 218.053 36.1897 218.538 35.6246C219.024 35.0595 219.676 34.7769 220.494 34.7769Z" fill="#334155"/>
<path d="M224.257 34.9412H225.203V35.7465C225.43 35.4675 225.635 35.2644 225.819 35.1372C226.135 34.9218 226.493 34.814 226.893 34.814C227.347 34.814 227.712 34.9253 227.988 35.1478C228.144 35.275 228.286 35.4622 228.413 35.7094C228.626 35.4056 228.875 35.1814 229.162 35.0365C229.449 34.8882 229.772 34.814 230.13 34.814C230.895 34.814 231.416 35.0895 231.692 35.6405C231.841 35.9372 231.915 36.3363 231.915 36.8379V40.6153H230.922V36.6736C230.922 36.2957 230.826 36.0361 230.635 35.8948C230.447 35.7535 230.217 35.6829 229.944 35.6829C229.568 35.6829 229.244 35.8083 228.971 36.0591C228.702 36.3098 228.567 36.7284 228.567 37.3147V40.6153H227.595V36.912C227.595 36.5271 227.549 36.2463 227.456 36.0697C227.311 35.8048 227.04 35.6723 226.643 35.6723C226.282 35.6723 225.952 35.8118 225.655 36.0909C225.361 36.3699 225.214 36.875 225.214 37.6061V40.6153H224.257V34.9412Z" fill="#334155"/>
<path d="M235.726 39.9743C236.173 39.9743 236.543 39.7889 236.837 39.418C237.135 39.0436 237.283 38.4855 237.283 37.7438C237.283 37.2917 237.218 36.9032 237.087 36.5783C236.839 35.9531 236.385 35.6405 235.726 35.6405C235.064 35.6405 234.61 35.9708 234.366 36.6312C234.234 36.9844 234.169 37.433 234.169 37.9769C234.169 38.4149 234.234 38.7875 234.366 39.0948C234.614 39.6811 235.067 39.9743 235.726 39.9743ZM233.249 34.9677H234.18V35.72C234.371 35.4622 234.58 35.2626 234.807 35.1213C235.129 34.9094 235.508 34.8034 235.944 34.8034C236.589 34.8034 237.136 35.0507 237.586 35.5452C238.036 36.0361 238.261 36.739 238.261 37.6538C238.261 38.89 237.937 39.773 237.289 40.3028C236.878 40.6383 236.399 40.8061 235.854 40.8061C235.425 40.8061 235.065 40.7125 234.775 40.5253C234.605 40.4193 234.415 40.2374 234.206 39.9796V42.8776H233.249V34.9677Z" fill="#334155"/>
<path d="M239.409 32.8326H240.366V40.6153H239.409V32.8326Z" fill="#334155"/>
<path d="M244.177 34.814C244.581 34.814 244.972 34.9094 245.351 35.1001C245.73 35.2873 246.019 35.531 246.217 35.8312C246.409 36.1173 246.536 36.4511 246.6 36.8326C246.657 37.0939 246.685 37.5107 246.685 38.0829H242.513C242.531 38.6586 242.667 39.1213 242.922 39.471C243.177 39.8171 243.573 39.9902 244.108 39.9902C244.607 39.9902 245.006 39.8259 245.303 39.4975C245.473 39.3067 245.594 39.086 245.665 38.8352H246.605C246.581 39.0436 246.497 39.2767 246.356 39.5345C246.217 39.7889 246.062 39.9972 245.888 40.1597C245.597 40.4423 245.238 40.633 244.809 40.7319C244.579 40.7884 244.318 40.8167 244.028 40.8167C243.319 40.8167 242.719 40.5606 242.226 40.0485C241.734 39.5328 241.487 38.8123 241.487 37.8869C241.487 36.9756 241.735 36.2357 242.231 35.667C242.727 35.0984 243.376 34.814 244.177 34.814ZM245.702 37.3253C245.663 36.912 245.573 36.5818 245.431 36.3346C245.169 35.8754 244.731 35.6458 244.118 35.6458C243.679 35.6458 243.31 35.8048 243.013 36.1226C242.715 36.437 242.557 36.8379 242.54 37.3253H245.702Z" fill="#334155"/>
<path d="M248.056 33.3571H249.024V34.9412H249.933V35.72H249.024V39.4233C249.024 39.6211 249.091 39.7535 249.226 39.8206C249.3 39.8595 249.424 39.8789 249.598 39.8789C249.644 39.8789 249.693 39.8789 249.746 39.8789C249.8 39.8754 249.862 39.8701 249.933 39.863V40.6153C249.823 40.6471 249.708 40.6701 249.587 40.6842C249.47 40.6983 249.343 40.7054 249.204 40.7054C248.758 40.7054 248.455 40.5924 248.296 40.3663C248.136 40.1368 248.056 39.8401 248.056 39.4763V35.72H247.286V34.9412H248.056V33.3571Z" fill="#334155"/>
<path d="M253.265 34.814C253.669 34.814 254.06 34.9094 254.439 35.1001C254.819 35.2873 255.107 35.531 255.306 35.8312C255.497 36.1173 255.625 36.4511 255.688 36.8326C255.745 37.0939 255.773 37.5107 255.773 38.0829H251.601C251.619 38.6586 251.755 39.1213 252.011 39.471C252.266 39.8171 252.661 39.9902 253.196 39.9902C253.695 39.9902 254.094 39.8259 254.392 39.4975C254.562 39.3067 254.682 39.086 254.753 38.8352H255.694C255.669 39.0436 255.586 39.2767 255.444 39.5345C255.306 39.7889 255.15 39.9972 254.976 40.1597C254.686 40.4423 254.326 40.633 253.897 40.7319C253.667 40.7884 253.407 40.8167 253.116 40.8167C252.407 40.8167 251.807 40.5606 251.314 40.0485C250.822 39.5328 250.576 38.8123 250.576 37.8869C250.576 36.9756 250.824 36.2357 251.32 35.667C251.816 35.0984 252.464 34.814 253.265 34.814ZM254.79 37.3253C254.751 36.912 254.661 36.5818 254.519 36.3346C254.257 35.8754 253.819 35.6458 253.206 35.6458C252.767 35.6458 252.399 35.8048 252.101 36.1226C251.803 36.437 251.646 36.8379 251.628 37.3253H254.79Z" fill="#334155"/>
<path d="M257.559 37.8445C257.559 38.452 257.688 38.9606 257.947 39.3703C258.206 39.78 258.62 39.9849 259.191 39.9849C259.634 39.9849 259.997 39.7959 260.28 39.418C260.567 39.0365 260.711 38.4908 260.711 37.7809C260.711 37.0639 260.564 36.5341 260.27 36.1915C259.976 35.8454 259.612 35.6723 259.18 35.6723C258.698 35.6723 258.307 35.856 258.006 36.2233C257.708 36.5906 257.559 37.131 257.559 37.8445ZM258.999 34.8405C259.435 34.8405 259.8 34.9324 260.094 35.116C260.264 35.222 260.457 35.4074 260.674 35.6723V32.8061H261.593V40.6153H260.732V39.8259C260.509 40.1756 260.245 40.4281 259.94 40.5836C259.635 40.739 259.286 40.8167 258.893 40.8167C258.259 40.8167 257.71 40.5518 257.246 40.022C256.781 39.4886 256.549 38.7805 256.549 37.8975C256.549 37.071 256.76 36.3558 257.182 35.7518C257.607 35.1443 258.213 34.8405 258.999 34.8405Z" fill="#334155"/>
<path d="M169.292 48.3028C169.292 47.304 170.104 46.4944 171.106 46.4944H178.362C179.364 46.4944 180.176 47.304 180.176 48.3028V55.5363C180.176 56.535 179.364 57.3447 178.362 57.3447H171.106C170.104 57.3447 169.292 56.535 169.292 55.5363V48.3028Z" fill="#B45309"/>
<path d="M192.691 49.7288C192.51 49.5134 192.251 49.4056 191.915 49.4056C191.454 49.4056 191.141 49.5769 190.974 49.9196C190.878 50.1173 190.822 50.4317 190.804 50.8626H189.332C189.357 50.2092 189.475 49.6811 189.688 49.2785C190.092 48.5121 190.809 48.1288 191.84 48.1288C192.655 48.1288 193.304 48.3549 193.786 48.807C194.267 49.2555 194.508 49.8507 194.508 50.5924C194.508 51.1611 194.338 51.6661 193.998 52.1076C193.775 52.4008 193.408 52.7275 192.898 53.0878L192.292 53.5169C191.913 53.7853 191.653 53.9796 191.511 54.0997C191.373 54.2198 191.256 54.3593 191.16 54.5182H194.524V55.848H189.247C189.261 55.297 189.38 54.7937 189.603 54.3381C189.819 53.8259 190.329 53.2838 191.134 52.7116C191.832 52.2136 192.283 51.8569 192.489 51.6414C192.804 51.3059 192.962 50.9385 192.962 50.5394C192.962 50.2145 192.871 49.9443 192.691 49.7288Z" fill="#334155"/>
<path d="M199.084 55.848H197.533V50.55H195.72V49.5222C196.199 49.501 196.533 49.4692 196.725 49.4268C197.029 49.3597 197.277 49.2255 197.469 49.0242C197.6 48.8864 197.699 48.7028 197.766 48.4732C197.805 48.3355 197.825 48.233 197.825 48.1659H199.084V55.848Z" fill="#334155"/>
<path d="M200.429 55.848L203.464 47.8004H204.723L201.678 55.848H200.429Z" fill="#334155"/>
<path d="M206.137 49.697C205.967 49.9231 205.886 50.2251 205.893 50.603H204.479C204.493 50.2215 204.559 49.8595 204.676 49.5169C204.8 49.2167 204.994 48.9394 205.26 48.6851C205.459 48.505 205.694 48.3672 205.967 48.2719C206.24 48.1765 206.575 48.1288 206.972 48.1288C207.709 48.1288 208.302 48.3196 208.752 48.701C209.205 49.0789 209.432 49.5875 209.432 50.2268C209.432 50.6789 209.298 51.0604 209.028 51.3712C208.858 51.5655 208.681 51.6979 208.497 51.7686C208.635 51.7686 208.833 51.8869 209.092 52.1235C209.478 52.4803 209.671 52.9677 209.671 53.5858C209.671 54.2357 209.445 54.8078 208.991 55.3023C208.541 55.7933 207.873 56.0387 206.987 56.0387C205.896 56.0387 205.138 55.6838 204.713 54.9738C204.49 54.5959 204.366 54.1014 204.341 53.4904H205.829C205.829 53.7977 205.878 54.052 205.978 54.2533C206.162 54.6242 206.497 54.8096 206.982 54.8096C207.28 54.8096 207.538 54.7089 207.758 54.5076C207.981 54.3028 208.093 54.0096 208.093 53.6282C208.093 53.1231 207.887 52.7858 207.476 52.6162C207.243 52.5209 206.874 52.4732 206.371 52.4732V51.3924C206.863 51.3853 207.207 51.3377 207.402 51.2494C207.739 51.101 207.907 50.8008 207.907 50.3487C207.907 50.0555 207.82 49.8171 207.647 49.6335C207.476 49.4498 207.235 49.358 206.924 49.358C206.566 49.358 206.304 49.471 206.137 49.697Z" fill="#334155"/>
<path d="M213.11 56.0387C212.129 56.0387 211.439 55.6961 211.043 55.0109C210.649 54.3257 210.453 53.3491 210.453 52.0811C210.453 50.8131 210.649 49.8348 211.043 49.146C211.439 48.4573 212.129 48.1129 213.11 48.1129C214.092 48.1129 214.781 48.4573 215.178 49.146C215.571 49.8348 215.767 50.8131 215.767 52.0811C215.767 53.3491 215.569 54.3257 215.172 55.0109C214.779 55.6961 214.092 56.0387 213.11 56.0387ZM213.998 54.105C214.136 53.6387 214.205 52.9641 214.205 52.0811C214.205 51.1558 214.134 50.4705 213.992 50.0255C213.854 49.5805 213.56 49.358 213.11 49.358C212.66 49.358 212.362 49.5805 212.217 50.0255C212.072 50.4705 211.999 51.1558 211.999 52.0811C211.999 52.9641 212.072 53.6405 212.217 54.1103C212.362 54.5765 212.66 54.8096 213.11 54.8096C213.56 54.8096 213.856 54.5747 213.998 54.105Z" fill="#334155"/>
<path d="M219.169 56.0387C218.187 56.0387 217.498 55.6961 217.101 55.0109C216.708 54.3257 216.512 53.3491 216.512 52.0811C216.512 50.8131 216.708 49.8348 217.101 49.146C217.498 48.4573 218.187 48.1129 219.169 48.1129C220.15 48.1129 220.839 48.4573 221.236 49.146C221.63 49.8348 221.826 50.8131 221.826 52.0811C221.826 53.3491 221.628 54.3257 221.231 55.0109C220.838 55.6961 220.15 56.0387 219.169 56.0387ZM220.056 54.105C220.195 53.6387 220.264 52.9641 220.264 52.0811C220.264 51.1558 220.193 50.4705 220.051 50.0255C219.913 49.5805 219.619 49.358 219.169 49.358C218.719 49.358 218.421 49.5805 218.276 50.0255C218.131 50.4705 218.058 51.1558 218.058 52.0811C218.058 52.9641 218.131 53.6405 218.276 54.1103C218.421 54.5765 218.719 54.8096 219.169 54.8096C219.619 54.8096 219.915 54.5747 220.056 54.105Z" fill="#334155"/>
<path d="M172.932 75.4285C173.921 75.4285 174.688 75.6881 175.234 76.2073C175.779 76.7265 176.082 77.3164 176.142 77.9769H175.111C174.994 77.4753 174.761 77.078 174.41 76.7848C174.063 76.4917 173.574 76.3451 172.943 76.3451C172.174 76.3451 171.552 76.6153 171.078 77.1557C170.606 77.6925 170.371 78.5173 170.371 79.6298C170.371 80.5411 170.583 81.281 171.008 81.8497C171.437 82.4148 172.075 82.6974 172.922 82.6974C173.701 82.6974 174.295 82.3989 174.702 81.802C174.918 81.4877 175.08 81.0744 175.186 80.5623H176.217C176.125 81.3817 175.82 82.0687 175.303 82.6232C174.683 83.2908 173.846 83.6245 172.794 83.6245C171.887 83.6245 171.125 83.3508 170.509 82.8033C169.697 82.0793 169.292 80.9614 169.292 79.4497C169.292 78.3018 169.596 77.3605 170.206 76.6259C170.865 75.8276 171.774 75.4285 172.932 75.4285Z" fill="#334155"/>
<path d="M178.114 81.9133C178.114 82.1888 178.215 82.406 178.417 82.5649C178.619 82.7239 178.858 82.8033 179.135 82.8033C179.471 82.8033 179.797 82.7256 180.113 82.5702C180.644 82.3124 180.91 81.8903 180.91 81.304V80.5358C180.793 80.61 180.642 80.6718 180.458 80.7212C180.274 80.7707 180.093 80.806 179.916 80.8272L179.337 80.9014C178.989 80.9473 178.729 81.0197 178.555 81.1186C178.261 81.2846 178.114 81.5495 178.114 81.9133ZM180.431 79.9848C180.651 79.9566 180.798 79.8647 180.873 79.7093C180.915 79.6245 180.936 79.5027 180.936 79.3437C180.936 79.0188 180.819 78.7839 180.586 78.6391C180.355 78.4908 180.024 78.4166 179.592 78.4166C179.092 78.4166 178.738 78.5508 178.529 78.8192C178.412 78.9676 178.336 79.1883 178.3 79.4815H177.407C177.425 78.7822 177.652 78.2965 178.088 78.0245C178.527 77.7491 179.035 77.6113 179.613 77.6113C180.283 77.6113 180.827 77.7385 181.245 77.9928C181.659 78.2471 181.866 78.6426 181.866 79.1795V82.4484C181.866 82.5473 181.886 82.6267 181.925 82.6868C181.967 82.7468 182.054 82.7769 182.185 82.7769C182.228 82.7769 182.276 82.7751 182.329 82.7716C182.382 82.7645 182.439 82.7557 182.499 82.7451V83.4497C182.35 83.4921 182.237 83.5186 182.159 83.5292C182.081 83.5398 181.975 83.5451 181.84 83.5451C181.51 83.5451 181.271 83.4285 181.122 83.1954C181.044 83.0718 180.99 82.8969 180.958 82.6709C180.763 82.9252 180.483 83.1459 180.118 83.3331C179.753 83.5203 179.351 83.6139 178.911 83.6139C178.384 83.6139 177.951 83.455 177.615 83.1371C177.282 82.8157 177.115 82.4148 177.115 81.9345C177.115 81.4082 177.28 81.0003 177.609 80.7106C177.939 80.421 178.371 80.2426 178.906 80.1755L180.431 79.9848Z" fill="#334155"/>
<path d="M183.631 76.1649H184.598V77.7491H185.507V78.5279H184.598V82.2312C184.598 82.4289 184.666 82.5614 184.8 82.6285C184.875 82.6674 184.999 82.6868 185.172 82.6868C185.218 82.6868 185.268 82.6868 185.321 82.6868C185.374 82.6833 185.436 82.678 185.507 82.6709V83.4232C185.397 83.455 185.282 83.478 185.162 83.4921C185.045 83.5062 184.917 83.5133 184.779 83.5133C184.333 83.5133 184.03 83.4002 183.87 83.1742C183.711 82.9446 183.631 82.6479 183.631 82.2841V78.5279H182.86V77.7491H183.631V76.1649Z" fill="#334155"/>
<path d="M188.839 77.6219C189.243 77.6219 189.635 77.7173 190.014 77.908C190.393 78.0952 190.682 78.3389 190.88 78.6391C191.072 78.9252 191.199 79.259 191.263 79.6404C191.32 79.9018 191.348 80.3186 191.348 80.8908H187.176C187.194 81.4665 187.33 81.9292 187.585 82.2788C187.84 82.625 188.235 82.798 188.77 82.798C189.27 82.798 189.669 82.6338 189.966 82.3053C190.136 82.1146 190.257 81.8939 190.328 81.6431H191.268C191.243 81.8515 191.16 82.0846 191.018 82.3424C190.88 82.5967 190.724 82.8051 190.551 82.9676C190.26 83.2501 189.901 83.4409 189.472 83.5398C189.242 83.5963 188.981 83.6245 188.691 83.6245C187.982 83.6245 187.381 83.3685 186.889 82.8563C186.396 82.3406 186.15 81.6201 186.15 80.6947C186.15 79.7835 186.398 79.0435 186.894 78.4749C187.39 77.9062 188.039 77.6219 188.839 77.6219ZM190.365 80.1331C190.326 79.7199 190.235 79.3897 190.094 79.1424C189.831 78.6833 189.394 78.4537 188.781 78.4537C188.342 78.4537 187.973 78.6126 187.675 78.9305C187.378 79.2449 187.22 79.6457 187.202 80.1331H190.365Z" fill="#334155"/>
<path d="M194.537 77.6484C194.983 77.6484 195.373 77.7579 195.706 77.9769C195.887 78.1005 196.071 78.2806 196.259 78.5173V77.802H197.141V82.9623C197.141 83.6828 197.035 84.2515 196.822 84.6682C196.425 85.4382 195.676 85.8232 194.574 85.8232C193.961 85.8232 193.446 85.6855 193.027 85.41C192.609 85.138 192.375 84.7106 192.326 84.1278H193.298C193.345 84.3821 193.437 84.5782 193.575 84.7159C193.791 84.9278 194.131 85.0338 194.595 85.0338C195.329 85.0338 195.809 84.776 196.036 84.2603C196.17 83.9565 196.232 83.4144 196.222 82.6338C196.03 82.9234 195.8 83.1389 195.531 83.2802C195.261 83.4214 194.905 83.4921 194.462 83.4921C193.846 83.4921 193.306 83.2749 192.841 82.8404C192.381 82.4025 192.151 81.6802 192.151 80.6735C192.151 79.7234 192.383 78.9817 192.847 78.4484C193.314 77.9151 193.878 77.6484 194.537 77.6484ZM196.259 80.5623C196.259 79.8594 196.114 79.3385 195.823 78.9994C195.532 78.6603 195.162 78.4908 194.712 78.4908C194.039 78.4908 193.578 78.8051 193.33 79.4338C193.199 79.7694 193.134 80.2091 193.134 80.753C193.134 81.3923 193.263 81.8797 193.522 82.2153C193.784 82.5473 194.135 82.7133 194.574 82.7133C195.261 82.7133 195.745 82.4042 196.025 81.7861C196.181 81.4365 196.259 81.0285 196.259 80.5623Z" fill="#334155"/>
<path d="M200.845 82.8086C201.48 82.8086 201.914 82.5702 202.148 82.0934C202.385 81.6131 202.504 81.0797 202.504 80.4934C202.504 79.9636 202.419 79.5327 202.249 79.2007C201.979 78.678 201.515 78.4166 200.856 78.4166C200.271 78.4166 199.846 78.6391 199.581 79.0841C199.315 79.5292 199.182 80.066 199.182 80.6947C199.182 81.2987 199.315 81.802 199.581 82.2047C199.846 82.6073 200.268 82.8086 200.845 82.8086ZM200.883 77.5848C201.616 77.5848 202.236 77.8285 202.743 78.3159C203.249 78.8034 203.503 79.5203 203.503 80.4669C203.503 81.3817 203.28 82.1376 202.833 82.7345C202.387 83.3314 201.694 83.6298 200.755 83.6298C199.972 83.6298 199.35 83.3667 198.89 82.8404C198.429 82.3106 198.199 81.6007 198.199 80.7106C198.199 79.757 198.441 78.9976 198.927 78.4325C199.412 77.8674 200.064 77.5848 200.883 77.5848Z" fill="#334155"/>
<path d="M204.672 77.7491H205.581V78.7292C205.655 78.5385 205.838 78.3071 206.128 78.0351C206.419 77.7596 206.754 77.6219 207.133 77.6219C207.151 77.6219 207.181 77.6237 207.223 77.6272C207.266 77.6307 207.338 77.6378 207.441 77.6484V78.655C207.384 78.6444 207.331 78.6373 207.282 78.6338C207.236 78.6303 207.184 78.6285 207.127 78.6285C206.646 78.6285 206.275 78.7839 206.017 79.0947C205.758 79.402 205.629 79.757 205.629 80.1596V83.4232H204.672V77.7491Z" fill="#334155"/>
<path d="M208.27 77.7755H209.243V83.4232H208.27V77.7755ZM208.27 75.6404H209.243V76.7212H208.27V75.6404Z" fill="#334155"/>
<path d="M213.064 77.6219C213.468 77.6219 213.86 77.7173 214.239 77.908C214.618 78.0952 214.907 78.3389 215.105 78.6391C215.296 78.9252 215.424 79.259 215.488 79.6404C215.544 79.9018 215.573 80.3186 215.573 80.8908H211.401C211.418 81.4665 211.555 81.9292 211.81 82.2788C212.065 82.625 212.46 82.798 212.995 82.798C213.495 82.798 213.893 82.6338 214.191 82.3053C214.361 82.1146 214.481 81.8939 214.552 81.6431H215.493C215.468 81.8515 215.385 82.0846 215.243 82.3424C215.105 82.5967 214.949 82.8051 214.775 82.9676C214.485 83.2501 214.125 83.4409 213.697 83.5398C213.466 83.5963 213.206 83.6245 212.915 83.6245C212.207 83.6245 211.606 83.3685 211.114 82.8563C210.621 82.3406 210.375 81.6201 210.375 80.6947C210.375 79.7835 210.623 79.0435 211.119 78.4749C211.615 77.9062 212.263 77.6219 213.064 77.6219ZM214.589 80.1331C214.55 79.7199 214.46 79.3897 214.318 79.1424C214.056 78.6833 213.619 78.4537 213.006 78.4537C212.566 78.4537 212.198 78.6126 211.9 78.9305C211.603 79.2449 211.445 79.6457 211.427 80.1331H214.589Z" fill="#334155"/>
<path d="M217.321 81.6431C217.35 81.961 217.429 82.2047 217.56 82.3742C217.801 82.6815 218.219 82.8351 218.815 82.8351C219.169 82.8351 219.481 82.7592 219.75 82.6073C220.019 82.4519 220.154 82.2135 220.154 81.8921C220.154 81.6484 220.046 81.4629 219.83 81.3358C219.692 81.2581 219.419 81.168 219.011 81.0656L218.251 80.8749C217.766 80.7548 217.408 80.6206 217.178 80.4722C216.767 80.2144 216.561 79.8577 216.561 79.402C216.561 78.8652 216.754 78.4307 217.14 78.0987C217.53 77.7667 218.053 77.6007 218.708 77.6007C219.566 77.6007 220.184 77.8515 220.563 78.353C220.801 78.6709 220.916 79.0135 220.909 79.3808H220.005C219.987 79.1654 219.911 78.9694 219.777 78.7928C219.557 78.542 219.176 78.4166 218.634 78.4166C218.273 78.4166 217.998 78.4855 217.81 78.6232C217.626 78.761 217.534 78.9429 217.534 79.1689C217.534 79.4162 217.656 79.6139 217.9 79.7623C218.042 79.8506 218.251 79.9283 218.528 79.9954L219.16 80.149C219.847 80.315 220.308 80.4758 220.542 80.6312C220.914 80.8749 221.1 81.2581 221.1 81.7808C221.1 82.2859 220.907 82.7221 220.521 83.0894C220.138 83.4568 219.553 83.6404 218.767 83.6404C217.92 83.6404 217.319 83.4497 216.965 83.0682C216.614 82.6833 216.427 82.2082 216.402 81.6431H217.321Z" fill="#334155"/>
<path d="M227.419 77.5848C228.061 77.5848 228.581 77.7402 228.982 78.051C229.386 78.3619 229.628 78.897 229.71 79.6563H228.78C228.723 79.3067 228.594 79.017 228.392 78.7875C228.19 78.5543 227.866 78.4378 227.419 78.4378C226.81 78.4378 226.374 78.7345 226.112 79.3279C225.942 79.7128 225.857 80.1879 225.857 80.753C225.857 81.3217 225.977 81.8003 226.218 82.1888C226.459 82.5773 226.838 82.7716 227.355 82.7716C227.752 82.7716 228.066 82.6515 228.296 82.4113C228.53 82.1676 228.691 81.8356 228.78 81.4153H229.71C229.604 82.1676 229.338 82.7186 228.913 83.0682C228.487 83.4144 227.944 83.5874 227.281 83.5874C226.537 83.5874 225.943 83.3172 225.501 82.7769C225.058 82.2329 224.836 81.5548 224.836 80.7424C224.836 79.7464 225.079 78.9711 225.564 78.4166C226.05 77.8621 226.668 77.5848 227.419 77.5848Z" fill="#334155"/>
<path d="M232.925 82.8086C233.56 82.8086 233.994 82.5702 234.227 82.0934C234.465 81.6131 234.583 81.0797 234.583 80.4934C234.583 79.9636 234.498 79.5327 234.328 79.2007C234.059 78.678 233.595 78.4166 232.936 78.4166C232.351 78.4166 231.926 78.6391 231.66 79.0841C231.395 79.5292 231.262 80.066 231.262 80.6947C231.262 81.2987 231.395 81.802 231.66 82.2047C231.926 82.6073 232.348 82.8086 232.925 82.8086ZM232.962 77.5848C233.696 77.5848 234.316 77.8285 234.823 78.3159C235.329 78.8034 235.583 79.5203 235.583 80.4669C235.583 81.3817 235.359 82.1376 234.913 82.7345C234.467 83.3314 233.774 83.6298 232.835 83.6298C232.052 83.6298 231.43 83.3667 230.969 82.8404C230.509 82.3106 230.279 81.6007 230.279 80.7106C230.279 79.757 230.521 78.9976 231.007 78.4325C231.492 77.8674 232.144 77.5848 232.962 77.5848Z" fill="#334155"/>
<path d="M236.725 77.7491H237.671V78.5543C237.898 78.2753 238.104 78.0722 238.288 77.9451C238.603 77.7296 238.961 77.6219 239.361 77.6219C239.815 77.6219 240.18 77.7332 240.456 77.9557C240.612 78.0828 240.754 78.27 240.881 78.5173C241.094 78.2135 241.344 77.9892 241.631 77.8444C241.918 77.6961 242.24 77.6219 242.598 77.6219C243.363 77.6219 243.884 77.8974 244.161 78.4484C244.309 78.7451 244.384 79.1442 244.384 79.6457V83.4232H243.39V79.4815C243.39 79.1036 243.294 78.844 243.103 78.7027C242.915 78.5614 242.685 78.4908 242.412 78.4908C242.037 78.4908 241.712 78.6162 241.44 78.8669C241.17 79.1177 241.036 79.5362 241.036 80.1226V83.4232H240.063V79.7199C240.063 79.3349 240.017 79.0541 239.925 78.8775C239.78 78.6126 239.508 78.4802 239.112 78.4802C238.75 78.4802 238.421 78.6197 238.123 78.8987C237.829 79.1777 237.682 79.6828 237.682 80.4139V83.4232H236.725V77.7491Z" fill="#334155"/>
<path d="M248.195 82.7821C248.641 82.7821 249.011 82.5967 249.305 82.2259C249.603 81.8515 249.752 81.2934 249.752 80.5517C249.752 80.0996 249.686 79.7111 249.555 79.3861C249.307 78.761 248.854 78.4484 248.195 78.4484C247.532 78.4484 247.078 78.7786 246.834 79.4391C246.703 79.7923 246.637 80.2409 246.637 80.7848C246.637 81.2228 246.703 81.5954 246.834 81.9027C247.082 82.489 247.536 82.7821 248.195 82.7821ZM245.718 77.7755H246.648V78.5279C246.839 78.27 247.048 78.0705 247.275 77.9292C247.598 77.7173 247.977 77.6113 248.412 77.6113C249.057 77.6113 249.605 77.8585 250.055 78.353C250.505 78.844 250.73 79.5468 250.73 80.4616C250.73 81.6978 250.406 82.5808 249.757 83.1106C249.346 83.4462 248.868 83.6139 248.322 83.6139C247.893 83.6139 247.534 83.5203 247.243 83.3331C247.073 83.2272 246.884 83.0453 246.675 82.7874V85.6855H245.718V77.7755Z" fill="#334155"/>
<path d="M251.878 75.6404H252.834V83.4232H251.878V75.6404Z" fill="#334155"/>
<path d="M256.645 77.6219C257.049 77.6219 257.44 77.7173 257.82 77.908C258.199 78.0952 258.487 78.3389 258.686 78.6391C258.877 78.9252 259.005 79.259 259.069 79.6404C259.125 79.9018 259.154 80.3186 259.154 80.8908H254.982C254.999 81.4665 255.136 81.9292 255.391 82.2788C255.646 82.625 256.041 82.798 256.576 82.798C257.076 82.798 257.474 82.6338 257.772 82.3053C257.942 82.1146 258.062 81.8939 258.133 81.6431H259.074C259.049 81.8515 258.966 82.0846 258.824 82.3424C258.686 82.5967 258.53 82.8051 258.356 82.9676C258.066 83.2501 257.706 83.4409 257.277 83.5398C257.047 83.5963 256.787 83.6245 256.496 83.6245C255.788 83.6245 255.187 83.3685 254.695 82.8563C254.202 82.3406 253.956 81.6201 253.956 80.6947C253.956 79.7835 254.204 79.0435 254.7 78.4749C255.196 77.9062 255.844 77.6219 256.645 77.6219ZM258.17 80.1331C258.131 79.7199 258.041 79.3897 257.899 79.1424C257.637 78.6833 257.2 78.4537 256.587 78.4537C256.147 78.4537 255.779 78.6126 255.481 78.9305C255.183 79.2449 255.026 79.6457 255.008 80.1331H258.17Z" fill="#334155"/>
<path d="M260.525 76.1649H261.492V77.7491H262.401V78.5279H261.492V82.2312C261.492 82.4289 261.559 82.5614 261.694 82.6285C261.768 82.6674 261.892 82.6868 262.066 82.6868C262.112 82.6868 262.162 82.6868 262.215 82.6868C262.268 82.6833 262.33 82.678 262.401 82.6709V83.4232C262.291 83.455 262.176 83.478 262.055 83.4921C261.939 83.5062 261.811 83.5133 261.673 83.5133C261.226 83.5133 260.923 83.4002 260.764 83.1742C260.605 82.9446 260.525 82.6479 260.525 82.2841V78.5279H259.754V77.7491H260.525V76.1649Z" fill="#334155"/>
<path d="M265.733 77.6219C266.137 77.6219 266.529 77.7173 266.908 77.908C267.287 78.0952 267.576 78.3389 267.774 78.6391C267.965 78.9252 268.093 79.259 268.157 79.6404C268.213 79.9018 268.242 80.3186 268.242 80.8908H264.07C264.087 81.4665 264.224 81.9292 264.479 82.2788C264.734 82.625 265.129 82.798 265.664 82.798C266.164 82.798 266.562 82.6338 266.86 82.3053C267.03 82.1146 267.151 81.8939 267.221 81.6431H268.162C268.137 81.8515 268.054 82.0846 267.912 82.3424C267.774 82.5967 267.618 82.8051 267.445 82.9676C267.154 83.2501 266.794 83.4409 266.366 83.5398C266.135 83.5963 265.875 83.6245 265.584 83.6245C264.876 83.6245 264.275 83.3685 263.783 82.8563C263.29 82.3406 263.044 81.6201 263.044 80.6947C263.044 79.7835 263.292 79.0435 263.788 78.4749C264.284 77.9062 264.933 77.6219 265.733 77.6219ZM267.259 80.1331C267.22 79.7199 267.129 79.3897 266.988 79.1424C266.725 78.6833 266.288 78.4537 265.675 78.4537C265.235 78.4537 264.867 78.6126 264.569 78.9305C264.272 79.2449 264.114 79.6457 264.096 80.1331H267.259Z" fill="#334155"/>
<path d="M270.028 80.6524C270.028 81.2599 270.157 81.7685 270.416 82.1782C270.674 82.5879 271.089 82.7927 271.659 82.7927C272.102 82.7927 272.465 82.6038 272.749 82.2259C273.036 81.8444 273.179 81.2987 273.179 80.5888C273.179 79.8718 273.032 79.342 272.738 78.9994C272.444 78.6532 272.081 78.4802 271.649 78.4802C271.167 78.4802 270.775 78.6638 270.474 79.0312C270.176 79.3985 270.028 79.9389 270.028 80.6524ZM271.468 77.6484C271.904 77.6484 272.269 77.7402 272.563 77.9239C272.733 78.0298 272.926 78.2153 273.142 78.4802V75.614H274.061V83.4232H273.2V82.6338C272.977 82.9835 272.713 83.236 272.409 83.3914C272.104 83.5468 271.755 83.6245 271.362 83.6245C270.727 83.6245 270.178 83.3596 269.714 82.8298C269.25 82.2965 269.018 81.5883 269.018 80.7053C269.018 79.8788 269.229 79.1636 269.65 78.5596C270.075 77.9521 270.681 77.6484 271.468 77.6484Z" fill="#334155"/>
<path d="M169.292 91.2483C169.292 90.2496 170.104 89.4399 171.106 89.4399H178.362C179.364 89.4399 180.176 90.2496 180.176 91.2483V98.4819C180.176 99.4806 179.364 100.29 178.362 100.29H171.106C170.104 100.29 169.292 99.4806 169.292 98.4819V91.2483Z" fill="#D97706"/>
<path d="M194.652 95.9591V97.1406H193.78V98.7936H192.297V97.1406H189.247V95.8214L192.08 91.1592H193.78V95.9591H194.652ZM190.368 95.9591H192.297V92.6426L190.368 95.9591Z" fill="#334155"/>
<path d="M194.423 98.7936L197.458 90.7459H198.718L195.672 98.7936H194.423Z" fill="#334155"/>
<path d="M200.131 92.6426C199.961 92.8686 199.88 93.1706 199.887 93.5486H198.473C198.487 93.1671 198.553 92.8051 198.67 92.4625C198.794 92.1622 198.989 91.885 199.255 91.6307C199.453 91.4505 199.689 91.3128 199.961 91.2174C200.234 91.1221 200.569 91.0744 200.966 91.0744C201.703 91.0744 202.296 91.2651 202.746 91.6466C203.2 92.0245 203.427 92.5331 203.427 93.1724C203.427 93.6245 203.292 94.0059 203.023 94.3168C202.853 94.511 202.675 94.6435 202.491 94.7141C202.629 94.7141 202.828 94.8324 203.086 95.0691C203.473 95.4258 203.666 95.9132 203.666 96.5313C203.666 97.1812 203.439 97.7534 202.985 98.2479C202.535 98.7388 201.868 98.9843 200.982 98.9843C199.891 98.9843 199.132 98.6293 198.707 97.9194C198.484 97.5415 198.36 97.047 198.335 96.436H199.823C199.823 96.7432 199.873 96.9975 199.972 97.1989C200.156 97.5697 200.491 97.7552 200.976 97.7552C201.274 97.7552 201.533 97.6545 201.752 97.4532C201.976 97.2483 202.087 96.9552 202.087 96.5737C202.087 96.0686 201.882 95.7313 201.471 95.5618C201.237 95.4664 200.868 95.4187 200.365 95.4187V94.338C200.858 94.3309 201.201 94.2832 201.396 94.1949C201.733 94.0466 201.901 93.7463 201.901 93.2942C201.901 93.0011 201.814 92.7627 201.641 92.579C201.471 92.3954 201.23 92.3035 200.918 92.3035C200.56 92.3035 200.298 92.4165 200.131 92.6426Z" fill="#334155"/>
<path d="M207.104 98.9843C206.123 98.9843 205.434 98.6417 205.037 97.9565C204.644 97.2713 204.447 96.2947 204.447 95.0267C204.447 93.7587 204.644 92.7803 205.037 92.0916C205.434 91.4029 206.123 91.0585 207.104 91.0585C208.086 91.0585 208.775 91.4029 209.172 92.0916C209.565 92.7803 209.762 93.7587 209.762 95.0267C209.762 96.2947 209.563 97.2713 209.167 97.9565C208.773 98.6417 208.086 98.9843 207.104 98.9843ZM207.992 97.0505C208.13 96.5843 208.199 95.9097 208.199 95.0267C208.199 94.1013 208.128 93.4161 207.987 92.9711C207.848 92.526 207.554 92.3035 207.104 92.3035C206.654 92.3035 206.357 92.526 206.212 92.9711C206.066 93.4161 205.994 94.1013 205.994 95.0267C205.994 95.9097 206.066 96.5861 206.212 97.0558C206.357 97.522 206.654 97.7552 207.104 97.7552C207.554 97.7552 207.85 97.5203 207.992 97.0505Z" fill="#334155"/>
<path d="M176.839 126.348L176.307 126.989L175.101 126.072C174.81 126.231 174.495 126.358 174.155 126.454C173.818 126.549 173.45 126.597 173.049 126.597C171.838 126.597 170.888 126.201 170.201 125.41C169.595 124.64 169.292 123.676 169.292 122.517C169.292 121.465 169.554 120.564 170.078 119.815C170.752 118.854 171.747 118.374 173.065 118.374C174.444 118.374 175.464 118.816 176.127 119.699C176.644 120.387 176.902 121.269 176.902 122.342C176.902 122.844 176.84 123.326 176.716 123.789C176.529 124.495 176.212 125.071 175.765 125.516L176.839 126.348ZM173.177 125.654C173.397 125.654 173.602 125.639 173.793 125.611C173.985 125.579 174.151 125.519 174.293 125.431L173.437 124.763L173.969 124.112L174.989 124.901C175.312 124.534 175.529 124.122 175.643 123.667C175.76 123.211 175.818 122.775 175.818 122.358C175.818 121.443 175.577 120.707 175.095 120.149C174.617 119.591 173.962 119.312 173.129 119.312C172.286 119.312 171.618 119.58 171.125 120.117C170.633 120.65 170.387 121.473 170.387 122.586C170.387 123.522 170.622 124.267 171.093 124.822C171.568 125.376 172.263 125.654 173.177 125.654Z" fill="#334155"/>
<path d="M178.996 120.695V124.461C178.996 124.751 179.043 124.988 179.135 125.171C179.305 125.51 179.622 125.68 180.086 125.68C180.752 125.68 181.206 125.383 181.447 124.79C181.578 124.472 181.643 124.036 181.643 123.481V120.695H182.6V126.369H181.696L181.707 125.532C181.583 125.747 181.429 125.929 181.245 126.077C180.88 126.374 180.437 126.522 179.916 126.522C179.105 126.522 178.552 126.252 178.258 125.712C178.098 125.422 178.019 125.035 178.019 124.552V120.695H178.996Z" fill="#334155"/>
<path d="M184.099 120.721H185.071V126.369H184.099V120.721ZM184.099 118.586H185.071V119.667H184.099V118.586Z" fill="#334155"/>
<path d="M186.097 125.616L189.472 121.548H186.347V120.695H190.758V121.473L187.404 125.516H190.859V126.369H186.097V125.616Z" fill="#334155"/>
<path d="M191.539 125.616L194.914 121.548H191.789V120.695H196.2V121.473L192.847 125.516H196.301V126.369H191.539V125.616Z" fill="#334155"/>
<path d="M199.777 120.567C200.181 120.567 200.573 120.663 200.952 120.854C201.331 121.041 201.62 121.284 201.818 121.585C202.009 121.871 202.137 122.205 202.201 122.586C202.257 122.847 202.286 123.264 202.286 123.836H198.114C198.131 124.412 198.268 124.875 198.523 125.224C198.778 125.571 199.173 125.744 199.708 125.744C200.208 125.744 200.606 125.579 200.904 125.251C201.074 125.06 201.194 124.839 201.265 124.589H202.206C202.181 124.797 202.098 125.03 201.956 125.288C201.818 125.542 201.662 125.751 201.489 125.913C201.198 126.196 200.838 126.386 200.41 126.485C200.179 126.542 199.919 126.57 199.628 126.57C198.92 126.57 198.319 126.314 197.827 125.802C197.334 125.286 197.088 124.566 197.088 123.64C197.088 122.729 197.336 121.989 197.832 121.42C198.328 120.852 198.976 120.567 199.777 120.567ZM201.303 123.079C201.264 122.665 201.173 122.335 201.031 122.088C200.769 121.629 200.332 121.399 199.719 121.399C199.279 121.399 198.911 121.558 198.613 121.876C198.316 122.19 198.158 122.591 198.14 123.079H201.303Z" fill="#334155"/>
<path d="M204.034 124.589C204.063 124.907 204.142 125.15 204.273 125.32C204.514 125.627 204.932 125.781 205.528 125.781C205.882 125.781 206.194 125.705 206.463 125.553C206.732 125.397 206.867 125.159 206.867 124.838C206.867 124.594 206.759 124.409 206.543 124.281C206.405 124.204 206.132 124.114 205.724 124.011L204.964 123.82C204.479 123.7 204.121 123.566 203.891 123.418C203.48 123.16 203.274 122.803 203.274 122.348C203.274 121.811 203.467 121.376 203.854 121.044C204.243 120.712 204.766 120.546 205.421 120.546C206.279 120.546 206.897 120.797 207.276 121.299C207.514 121.616 207.629 121.959 207.622 122.326H206.718C206.701 122.111 206.624 121.915 206.49 121.738C206.27 121.488 205.889 121.362 205.347 121.362C204.986 121.362 204.711 121.431 204.523 121.569C204.339 121.707 204.247 121.888 204.247 122.114C204.247 122.362 204.369 122.56 204.614 122.708C204.755 122.796 204.964 122.874 205.241 122.941L205.873 123.095C206.561 123.261 207.021 123.421 207.255 123.577C207.627 123.82 207.813 124.204 207.813 124.726C207.813 125.231 207.62 125.668 207.234 126.035C206.851 126.402 206.266 126.586 205.48 126.586C204.633 126.586 204.033 126.395 203.678 126.014C203.327 125.629 203.14 125.154 203.115 124.589H204.034Z" fill="#334155"/>
<path d="M214.132 120.53C214.774 120.53 215.294 120.686 215.695 120.997C216.099 121.307 216.341 121.843 216.423 122.602H215.493C215.436 122.252 215.307 121.963 215.105 121.733C214.903 121.5 214.579 121.383 214.132 121.383C213.523 121.383 213.087 121.68 212.825 122.273C212.655 122.658 212.57 123.133 212.57 123.699C212.57 124.267 212.69 124.746 212.931 125.134C213.172 125.523 213.551 125.717 214.069 125.717C214.465 125.717 214.779 125.597 215.009 125.357C215.243 125.113 215.404 124.781 215.493 124.361H216.423C216.317 125.113 216.051 125.664 215.626 126.014C215.201 126.36 214.657 126.533 213.994 126.533C213.25 126.533 212.657 126.263 212.214 125.722C211.771 125.178 211.549 124.5 211.549 123.688C211.549 122.692 211.792 121.917 212.277 121.362C212.763 120.808 213.381 120.53 214.132 120.53Z" fill="#334155"/>
<path d="M219.638 125.754C220.273 125.754 220.707 125.516 220.941 125.039C221.178 124.559 221.297 124.025 221.297 123.439C221.297 122.909 221.212 122.478 221.042 122.146C220.772 121.624 220.308 121.362 219.649 121.362C219.064 121.362 218.639 121.585 218.374 122.03C218.108 122.475 217.975 123.012 217.975 123.64C217.975 124.244 218.108 124.748 218.374 125.15C218.639 125.553 219.061 125.754 219.638 125.754ZM219.676 120.53C220.409 120.53 221.029 120.774 221.536 121.261C222.042 121.749 222.296 122.466 222.296 123.412C222.296 124.327 222.073 125.083 221.626 125.68C221.18 126.277 220.487 126.575 219.548 126.575C218.765 126.575 218.143 126.312 217.683 125.786C217.222 125.256 216.992 124.546 216.992 123.656C216.992 122.703 217.234 121.943 217.72 121.378C218.205 120.813 218.857 120.53 219.676 120.53Z" fill="#334155"/>
<path d="M223.438 120.695H224.384V121.5C224.611 121.221 224.817 121.018 225.001 120.891C225.316 120.675 225.674 120.567 226.075 120.567C226.528 120.567 226.893 120.679 227.169 120.901C227.325 121.028 227.467 121.216 227.595 121.463C227.807 121.159 228.057 120.935 228.344 120.79C228.631 120.642 228.953 120.567 229.311 120.567C230.077 120.567 230.597 120.843 230.874 121.394C231.023 121.691 231.097 122.09 231.097 122.591V126.369H230.103V122.427C230.103 122.049 230.007 121.79 229.816 121.648C229.628 121.507 229.398 121.436 229.125 121.436C228.75 121.436 228.425 121.562 228.153 121.812C227.883 122.063 227.749 122.482 227.749 123.068V126.369H226.776V122.665C226.776 122.28 226.73 122 226.638 121.823C226.493 121.558 226.222 121.426 225.825 121.426C225.463 121.426 225.134 121.565 224.836 121.844C224.542 122.123 224.395 122.628 224.395 123.36V126.369H223.438V120.695Z" fill="#334155"/>
<path d="M234.908 125.728C235.354 125.728 235.724 125.542 236.018 125.171C236.316 124.797 236.465 124.239 236.465 123.497C236.465 123.045 236.399 122.657 236.268 122.332C236.02 121.707 235.567 121.394 234.908 121.394C234.245 121.394 233.792 121.724 233.547 122.385C233.416 122.738 233.35 123.186 233.35 123.73C233.35 124.168 233.416 124.541 233.547 124.848C233.795 125.435 234.249 125.728 234.908 125.728ZM232.431 120.721H233.361V121.473C233.552 121.216 233.761 121.016 233.988 120.875C234.311 120.663 234.69 120.557 235.126 120.557C235.77 120.557 236.318 120.804 236.768 121.299C237.218 121.79 237.443 122.492 237.443 123.407C237.443 124.643 237.119 125.526 236.47 126.056C236.059 126.392 235.581 126.559 235.035 126.559C234.607 126.559 234.247 126.466 233.956 126.279C233.786 126.173 233.597 125.991 233.388 125.733V128.631H232.431V120.721Z" fill="#334155"/>
<path d="M238.591 118.586H239.547V126.369H238.591V118.586Z" fill="#334155"/>
<path d="M243.358 120.567C243.762 120.567 244.154 120.663 244.533 120.854C244.912 121.041 245.201 121.284 245.399 121.585C245.59 121.871 245.718 122.205 245.782 122.586C245.838 122.847 245.867 123.264 245.867 123.836H241.695C241.712 124.412 241.849 124.875 242.104 125.224C242.359 125.571 242.754 125.744 243.289 125.744C243.789 125.744 244.187 125.579 244.485 125.251C244.655 125.06 244.775 124.839 244.846 124.589H245.787C245.762 124.797 245.679 125.03 245.537 125.288C245.399 125.542 245.243 125.751 245.07 125.913C244.779 126.196 244.419 126.386 243.991 126.485C243.76 126.542 243.5 126.57 243.209 126.57C242.501 126.57 241.9 126.314 241.408 125.802C240.915 125.286 240.669 124.566 240.669 123.64C240.669 122.729 240.917 121.989 241.413 121.42C241.909 120.852 242.557 120.567 243.358 120.567ZM244.883 123.079C244.845 122.665 244.754 122.335 244.612 122.088C244.35 121.629 243.913 121.399 243.3 121.399C242.86 121.399 242.492 121.558 242.194 121.876C241.897 122.19 241.739 122.591 241.721 123.079H244.883Z" fill="#334155"/>
<path d="M247.238 119.111H248.205V120.695H249.114V121.473H248.205V125.177C248.205 125.375 248.273 125.507 248.407 125.574C248.482 125.613 248.606 125.632 248.779 125.632C248.825 125.632 248.875 125.632 248.928 125.632C248.981 125.629 249.043 125.624 249.114 125.616V126.369C249.004 126.401 248.889 126.424 248.769 126.438C248.652 126.452 248.524 126.459 248.386 126.459C247.939 126.459 247.637 126.346 247.477 126.12C247.318 125.89 247.238 125.593 247.238 125.23V121.473H246.467V120.695H247.238V119.111Z" fill="#334155"/>
<path d="M252.446 120.567C252.85 120.567 253.242 120.663 253.621 120.854C254 121.041 254.289 121.284 254.487 121.585C254.679 121.871 254.806 122.205 254.87 122.586C254.927 122.847 254.955 123.264 254.955 123.836H250.783C250.801 124.412 250.937 124.875 251.192 125.224C251.447 125.571 251.842 125.744 252.377 125.744C252.877 125.744 253.275 125.579 253.573 125.251C253.743 125.06 253.864 124.839 253.935 124.589H254.875C254.85 124.797 254.767 125.03 254.625 125.288C254.487 125.542 254.331 125.751 254.158 125.913C253.867 126.196 253.508 126.386 253.079 126.485C252.849 126.542 252.588 126.57 252.298 126.57C251.589 126.57 250.988 126.314 250.496 125.802C250.003 125.286 249.757 124.566 249.757 123.64C249.757 122.729 250.005 121.989 250.501 121.42C250.997 120.852 251.646 120.567 252.446 120.567ZM253.972 123.079C253.933 122.665 253.842 122.335 253.701 122.088C253.438 121.629 253.001 121.399 252.388 121.399C251.949 121.399 251.58 121.558 251.282 121.876C250.985 122.19 250.827 122.591 250.809 123.079H253.972Z" fill="#334155"/>
<path d="M256.741 123.598C256.741 124.205 256.87 124.714 257.129 125.124C257.387 125.533 257.802 125.738 258.372 125.738C258.815 125.738 259.178 125.549 259.462 125.171C259.749 124.79 259.892 124.244 259.892 123.534C259.892 122.817 259.745 122.288 259.451 121.945C259.157 121.599 258.794 121.426 258.362 121.426C257.88 121.426 257.488 121.609 257.187 121.977C256.89 122.344 256.741 122.884 256.741 123.598ZM258.181 120.594C258.617 120.594 258.982 120.686 259.276 120.869C259.446 120.975 259.639 121.161 259.855 121.426V118.56H260.775V126.369H259.914V125.579C259.69 125.929 259.426 126.182 259.122 126.337C258.817 126.492 258.468 126.57 258.075 126.57C257.44 126.57 256.891 126.305 256.427 125.775C255.963 125.242 255.731 124.534 255.731 123.651C255.731 122.824 255.942 122.109 256.363 121.505C256.789 120.898 257.394 120.594 258.181 120.594Z" fill="#334155"/>
<path d="M169.292 134.056C169.292 133.057 170.104 132.248 171.106 132.248H178.362C179.364 132.248 180.176 133.057 180.176 134.056V141.29C180.176 142.288 179.364 143.098 178.362 143.098H171.106C170.104 143.098 169.292 142.288 169.292 141.29V134.056Z" fill="#F59E0B"/>
<path d="M191.862 137.782C191.677 137.782 191.518 137.805 191.383 137.85C191.146 137.935 190.967 138.092 190.847 138.322L189.486 138.258L190.028 134.015H194.275V135.297H191.123L190.847 136.976C191.08 136.824 191.263 136.724 191.394 136.674C191.614 136.593 191.881 136.552 192.197 136.552C192.834 136.552 193.391 136.766 193.865 137.193C194.34 137.621 194.578 138.242 194.578 139.058C194.578 139.768 194.349 140.402 193.892 140.96C193.435 141.518 192.751 141.797 191.84 141.797C191.107 141.797 190.505 141.601 190.033 141.209C189.562 140.817 189.3 140.261 189.247 139.54H190.756C190.816 139.869 190.932 140.123 191.102 140.303C191.272 140.48 191.52 140.568 191.846 140.568C192.221 140.568 192.507 140.438 192.701 140.176C192.9 139.911 192.999 139.579 192.999 139.18C192.999 138.788 192.907 138.458 192.723 138.19C192.538 137.918 192.251 137.782 191.862 137.782Z" fill="#334155"/>
<path d="M194.423 141.596L197.458 133.548H198.718L195.672 141.596H194.423Z" fill="#334155"/>
<path d="M202.167 141.596H200.615V136.298H198.803V135.27C199.281 135.249 199.616 135.217 199.807 135.175C200.112 135.108 200.36 134.974 200.551 134.772C200.682 134.635 200.782 134.451 200.849 134.221C200.888 134.084 200.907 133.981 200.907 133.914H202.167V141.596Z" fill="#334155"/>
<path d="M207.891 135.477C207.71 135.261 207.452 135.154 207.115 135.154C206.654 135.154 206.341 135.325 206.174 135.668C206.079 135.865 206.022 136.18 206.004 136.611H204.532C204.557 135.957 204.676 135.429 204.888 135.027C205.292 134.26 206.01 133.877 207.041 133.877C207.856 133.877 208.504 134.103 208.986 134.555C209.468 135.004 209.709 135.599 209.709 136.341C209.709 136.909 209.539 137.414 209.198 137.856C208.975 138.149 208.608 138.476 208.098 138.836L207.492 139.265C207.113 139.533 206.853 139.728 206.711 139.848C206.573 139.968 206.456 140.107 206.36 140.266H209.725V141.596H204.447C204.461 141.045 204.58 140.542 204.803 140.086C205.019 139.574 205.529 139.032 206.334 138.46C207.032 137.962 207.484 137.605 207.689 137.39C208.004 137.054 208.162 136.687 208.162 136.288C208.162 135.963 208.072 135.692 207.891 135.477Z" fill="#334155"/>
<path d="M148.43 87.5C148.43 118.711 123.048 144.012 91.7388 144.012C60.4294 144.012 35.0481 118.711 35.0481 87.5C35.0481 56.2893 60.4294 30.988 91.7388 30.988C123.048 30.988 148.43 56.2893 148.43 87.5ZM41.2841 87.5C41.2841 115.278 63.8734 137.796 91.7388 137.796C119.604 137.796 142.194 115.278 142.194 87.5C142.194 59.7225 119.604 37.2044 91.7388 37.2044C63.8734 37.2044 41.2841 59.7225 41.2841 87.5Z" fill="#F1F5F9"/>
<path d="M138.225 87.5C138.225 113.093 117.413 133.84 91.7388 133.84C66.0651 133.84 45.2524 113.093 45.2524 87.5C45.2524 61.9072 66.0651 41.1602 91.7388 41.1602C117.413 41.1602 138.225 61.9072 138.225 87.5ZM51.4884 87.5C51.4884 109.66 69.5091 127.623 91.7388 127.623C113.968 127.623 131.989 109.66 131.989 87.5C131.989 65.3404 113.968 47.3765 91.7388 47.3765C69.5091 47.3765 51.4884 65.3404 51.4884 87.5Z" fill="#F1F5F9"/>
<path d="M128.021 87.5C128.021 107.475 111.777 123.668 91.7388 123.668C71.7008 123.668 55.4568 107.475 55.4568 87.5C55.4568 67.5252 71.7008 51.3323 91.7388 51.3323C111.777 51.3323 128.021 67.5252 128.021 87.5ZM61.6928 87.5C61.6928 104.042 75.1448 117.451 91.7388 117.451C108.333 117.451 121.785 104.042 121.785 87.5C121.785 70.9583 108.333 57.5487 91.7388 57.5487C75.1448 57.5487 61.6928 70.9583 61.6928 87.5Z" fill="#F1F5F9"/>
<path d="M91.7386 34.0962C91.7386 32.3796 93.136 30.9791 94.8554 31.0735C107.236 31.7527 119.084 36.4638 128.556 44.528C138.82 53.2667 145.62 65.3696 147.731 78.6596C149.843 91.9496 147.128 105.555 140.075 117.027C133.023 128.5 122.095 137.088 109.257 141.246C96.4194 145.404 82.5148 144.86 70.044 139.71C57.5733 134.561 47.3549 125.145 41.2268 113.156C35.0988 101.167 33.4632 87.3915 36.6143 74.3076C39.5222 62.2336 46.3302 51.4797 55.9455 43.6762C57.281 42.5924 59.2372 42.9067 60.2494 44.2954C61.2616 45.6842 60.9456 47.6207 59.6176 48.7135C51.1999 55.6404 45.2392 65.1242 42.678 75.7587C39.8735 87.4034 41.3292 99.6635 46.7831 110.334C52.2371 121.004 61.3315 129.384 72.4304 133.967C83.5294 138.55 95.9045 139.035 107.33 135.334C118.755 131.633 128.481 123.99 134.758 113.779C141.035 103.569 143.451 91.4602 141.572 79.6321C139.693 67.8039 133.641 57.0324 124.506 49.2549C116.164 42.1521 105.749 37.9721 94.8549 37.3003C93.1361 37.1944 91.7386 35.8128 91.7386 34.0962Z" fill="#B45309"/>
<path d="M91.7387 44.2683C91.7387 42.5517 93.1363 41.1493 94.8544 41.2644C100.137 41.6181 105.328 42.8694 110.201 44.9714C116.029 47.4856 121.279 51.1634 125.626 55.7782C129.973 60.3929 133.326 65.8467 135.477 71.8029C137.628 77.7592 138.532 84.0917 138.133 90.4097C137.735 96.7277 136.041 102.897 133.158 108.538C130.275 114.178 126.263 119.17 121.37 123.205C116.477 127.241 110.806 130.234 104.708 132C99.6093 133.476 94.3019 134.069 89.0167 133.76C87.2976 133.66 86.0874 132.094 86.3032 130.391C86.5191 128.688 88.0795 127.494 89.7995 127.577C94.2375 127.79 98.6877 127.27 102.968 126.03C108.249 124.501 113.159 121.91 117.395 118.416C121.632 114.922 125.106 110.6 127.602 105.716C130.098 100.832 131.564 95.4898 131.91 90.0194C132.255 84.5489 131.472 79.0659 129.61 73.9086C127.747 68.7514 124.844 64.0293 121.08 60.0336C117.316 56.0379 112.77 52.8533 107.724 50.6765C103.633 48.9118 99.2835 47.8396 94.8536 47.4968C93.1368 47.364 91.7387 45.9849 91.7387 44.2683Z" fill="#D97706"/>
<path d="M91.7388 54.4405C91.7388 52.7239 93.1374 51.3185 94.8531 51.4658C100.739 51.9713 106.43 53.9041 111.42 57.1158C117.285 60.8911 121.933 66.2733 124.806 72.6165C127.68 78.9598 128.656 85.9946 127.618 92.8772C126.58 99.7597 123.572 106.197 118.954 111.418C114.337 116.639 108.307 120.421 101.587 122.31C94.8675 124.199 87.7437 124.115 81.0704 122.069C74.3972 120.022 68.4581 116.1 63.9655 110.772C60.1437 106.24 57.5069 100.854 56.266 95.0963C55.9044 93.418 57.1278 91.8586 58.8363 91.6435C60.5447 91.4283 62.0885 92.6403 62.4801 94.3119C63.5513 98.884 65.6897 103.156 68.7391 106.772C72.4594 111.184 77.3778 114.433 82.9041 116.127C88.4303 117.822 94.3298 117.891 99.8946 116.327C105.459 114.762 110.453 111.631 114.277 107.307C118.1 102.984 120.591 97.6525 121.451 91.953C122.311 86.2534 121.502 80.4276 119.123 75.1746C116.744 69.9216 112.894 65.4645 108.037 62.3381C104.056 59.7755 99.5359 58.1962 94.8513 57.7098C93.1386 57.532 91.7388 56.1571 91.7388 54.4405Z" fill="#F59E0B"/>
<defs>
<filter id="filter0_dd_123_4448" x="0" y="0" width="315" height="183" filterUnits="userSpaceOnUse" color-interpolation-filters="sRGB">
<feFlood flood-opacity="0" result="BackgroundImageFix"/>
<feColorMatrix in="SourceAlpha" type="matrix" values="0 0 0 0 0 0 0 0 0 0 0 0 0 0 0 0 0 0 127 0" result="hardAlpha"/>
<feOffset dy="4"/>
<feGaussianBlur stdDeviation="8"/>
<feComposite in2="hardAlpha" operator="out"/>
<feColorMatrix type="matrix" values="0 0 0 0 0.109804 0 0 0 0 0.137255 0 0 0 0 0.2 0 0 0 0.05 0"/>
<feBlend mode="normal" in2="BackgroundImageFix" result="effect1_dropShadow_123_4448"/>
<feColorMatrix in="SourceAlpha" type="matrix" values="0 0 0 0 0 0 0 0 0 0 0 0 0 0 0 0 0 0 127 0" result="hardAlpha"/>
<feOffset dy="2"/>
<feGaussianBlur stdDeviation="4"/>
<feComposite in2="hardAlpha" operator="out"/>
<feColorMatrix type="matrix" values="0 0 0 0 0.109804 0 0 0 0 0.137255 0 0 0 0 0.2 0 0 0 0.05 0"/>
<feBlend mode="normal" in2="effect1_dropShadow_123_4448" result="effect2_dropShadow_123_4448"/>
<feBlend mode="normal" in="SourceGraphic" in2="effect2_dropShadow_123_4448" result="shape"/>
</filter>
</defs>
</svg>
